<svg width="1792" height="928" viewBox="0 0 1792 928" fill="none" xmlns="http://www.w3.org/2000/svg"><rect width="1792" height="928" fill="#071110"/><g opacity=".45" stroke="#DCEBE8"><path d="M60 110H1688M60 206H1688M60 302H1688M60 398H1688M60 494H1688M60 590H1688M60 686H1688M60 782H1688" stroke-opacity=".12"/><path d="M160 70V852M320 70V852M480 70V852M640 70V852M800 70V852M960 70V852M1120 70V852M1280 70V852M1440 70V852M1600 70V852" stroke-opacity=".08"/></g><path d="M0 675C226 594 370 486 592 497C854 510 1005 685 1265 619C1440 574 1576 435 1792 386" stroke="#46D6CF" stroke-opacity=".16" stroke-width="2"/><path d="M0 763C228 674 426 574 675 590C895 604 1030 724 1254 692C1471 661 1579 548 1792 503" stroke="#F0B85A" stroke-opacity=".12" stroke-width="2"/><g transform="translate(240 225)" opacity=".92"><ellipse cx="360" cy="260" rx="360" ry="176" fill="#46D6CF" fill-opacity=".04"/><ellipse cx="360" cy="260" rx="312" ry="150" stroke="#46D6CF" stroke-opacity=".34" stroke-width="2"/><ellipse cx="360" cy="260" rx="212" ry="102" stroke="#46D6CF" stroke-opacity=".24"/><ellipse cx="360" cy="260" rx="104" ry="50" stroke="#F0B85A" stroke-opacity=".26"/><path d="M0 260H720M360 84V436M95 140L625 380M95 380L625 140" stroke="#46D6CF" stroke-opacity=".12"/><circle cx="360" cy="260" r="8" fill="#46D6CF"/><circle cx="148" cy="174" r="5" fill="#46D6CF"/><circle cx="526" cy="194" r="5" fill="#F0B85A"/><circle cx="260" cy="358" r="5" fill="#DCEBE8"/><circle cx="618" cy="314" r="4" fill="#46D6CF"/><path d="M148 174L360 260L526 194L618 314L260 358L148 174Z" stroke="#46D6CF" stroke-opacity=".38" stroke-width="2"/></g><g transform="translate(160 110)"><rect width="275" height="118" rx="8" fill="#0F2422" fill-opacity=".78" stroke="#46D6CF" stroke-opacity=".32"/><path d="M30 82L74 58L112 70L154 36L198 52L236 28" stroke="#46D6CF" stroke-width="3" stroke-linecap="round"/><circle cx="154" cy="36" r="4" fill="#F0B85A"/></g><g transform="translate(480 96)"><rect width="332" height="132" rx="8" fill="#0F2422" fill-opacity=".74" stroke="#DCEBE8" stroke-opacity=".2"/><circle cx="72" cy="66" r="36" stroke="#46D6CF" stroke-opacity=".38"/><circle cx="72" cy="66" r="12" fill="#46D6CF" fill-opacity=".55"/><path d="M142 36H292M142 66H262M142 96H238" stroke="#DCEBE8" stroke-opacity=".28" stroke-width="4" stroke-linecap="round"/></g><g transform="translate(860 130)"><rect width="315" height="112" rx="8" fill="#0F2422" fill-opacity=".62" stroke="#F0B85A" stroke-opacity=".25"/><rect x="36" y="70" width="24" height="18" fill="#46D6CF" fill-opacity=".7"/><rect x="74" y="48" width="24" height="40" fill="#F0B85A" fill-opacity=".62"/><rect x="112" y="28" width="24" height="60" fill="#46D6CF" fill-opacity=".55"/><path d="M206 32H278M206 58H258M206 84H286" stroke="#DCEBE8" stroke-opacity=".23" stroke-width="4" stroke-linecap="round"/></g><g><circle cx="184" cy="735" r="5" fill="#46D6CF"/><circle cx="314" cy="641" r="4" fill="#F0B85A"/><circle cx="444" cy="722" r="5" fill="#DCEBE8"/><circle cx="608" cy="629" r="4" fill="#46D6CF"/><circle cx="762" cy="707" r="5" fill="#F0B85A"/><circle cx="932" cy="618" r="4" fill="#46D6CF"/><circle cx="1100" cy="666" r="5" fill="#DCEBE8"/><path d="M184 735L314 641L444 722L608 629L762 707L932 618L1100 666" stroke="#46D6CF" stroke-opacity=".28" stroke-width="2"/></g><rect width="1792" height="928" fill="url(#fade)"/><defs><linearGradient id="fade" x1="1792" y1="464" x2="0" y2="464" gradientUnits="userSpaceOnUse"><stop stop-color="#071110"/><stop offset=".45" stop-color="#071110" stop-opacity=".4"/><stop offset="1" stop-color="#071110" stop-opacity=".05"/></linearGradient></defs></svg>